<svg width="228" height="65" viewBox="0 0 228 65" fill="none" xmlns="http://www.w3.org/2000/svg">
<path d="M18.3311 49.8293L21.4253 47.1951C21.2076 49.2198 21.3421 50.3689 22.3093 52.4634C24.9615 56.8537 26.7296 57.5854 27.1717 57.7317C30.7079 54.5707 32.1813 51.1463 32.476 49.8293C32.6544 48.7944 32.6846 48.0746 32.476 46.3171C32.1223 43.5073 27.9083 39.2927 25.8455 37.5366C19.1041 32.2683 17.336 27.878 16.8941 23.4878C16.452 16.9024 21.3143 13.3902 27.1717 9C35.6586 15.322 36.6016 20.1219 36.0122 21.7317L32.918 24.3659C33.6253 21.5561 31.1499 18.2195 29.8238 16.9024L27.1717 14.2683L24.5195 16.9024C19.4385 21.724 19.5575 25.9102 28.4977 34.9024C39.4375 43.2439 37.1768 50.1869 36.3433 52.4634C34.5752 57.2927 30.0411 60.0622 27.1717 63C18.775 56.7411 17.5639 51.3885 18.3311 49.8293Z" fill="white"/>
<path d="M13.8791 27.8219L16.5603 30.9161C14.4994 30.6983 13.3299 30.8328 11.1979 31.8001C6.7293 34.4522 5.98453 36.2204 5.83558 36.6624C9.05299 40.1987 12.5385 41.6721 13.8791 41.9667C14.9324 42.1451 15.6651 42.1753 17.454 41.9667C19.077 41.766 21.1606 40.3221 22.9859 38.7336L25.9445 41.5176C18.8803 48.3823 13.2238 46.5627 11.1979 45.834C6.28244 44.0659 3.46342 39.5318 0.473206 36.6624C6.84384 28.2658 12.292 27.0546 13.8791 27.8219Z" fill="white"/>
<path d="M50.0751 36.6624L47.3939 34.0102C43.3631 29.8369 39.7684 29.1716 33.5411 34.0209L30.1894 31.2192C33.946 27.8072 37.3185 26.7183 40.691 26.3848C47.3939 25.9428 50.9688 30.8051 55.4375 36.6624C49.0026 45.1493 44.1169 46.0923 42.4784 45.503L39.7972 42.4088C42.6572 43.116 46.0533 40.6406 47.3939 39.3146L50.0751 36.6624Z" fill="white"/>
<path d="M69.1002 18.86C69.1002 17.568 68.9229 16.618 68.5682 16.01C68.2136 15.3767 67.5042 15.06 66.4402 15.06H66.0602V13.92H70.6202C71.5322 13.92 72.2289 14.072 72.7102 14.376C73.1916 14.68 73.5336 15.1867 73.7362 15.896C73.9389 16.58 74.0402 17.568 74.0402 18.86V25.13H84.3002V13.92H89.2402V34.06C89.2402 35.352 89.4176 36.3147 89.7722 36.948C90.1269 37.556 90.8362 37.86 91.9002 37.86H92.2802V39H87.7202C86.8082 39 86.1116 38.8607 85.6302 38.582C85.1489 38.278 84.8069 37.784 84.6042 37.1C84.4016 36.3907 84.3002 35.3773 84.3002 34.06V26.84H74.0402V39H69.1002V18.86ZM116.704 39.152C115.108 39.152 113.664 38.8227 112.372 38.164C111.08 37.48 110.029 36.1627 109.218 34.212L108.344 32.084H98.2358L95.1198 39H93.1438L104.354 13.92H106.064L114.576 34.212C115.539 36.568 116.856 37.8347 118.528 38.012V38.962C118.072 39.0887 117.464 39.152 116.704 39.152ZM107.622 30.374L103.442 20.456L99.0338 30.374H107.622ZM149.629 40.71C146.893 40.71 144.917 40.0767 143.701 38.81C142.511 37.518 141.915 35.428 141.915 32.54V19.088L133.593 39H132.339L122.155 18.328V39H120.255V13.92H124.891L134.087 32.578L141.877 13.92H146.855V32.54C146.855 34.9213 147.058 36.6693 147.463 37.784C147.869 38.8987 148.591 39.5573 149.629 39.76V40.71ZM174.26 39.152C172.664 39.152 171.22 38.8227 169.928 38.164C168.636 37.48 167.585 36.1627 166.774 34.212L165.9 32.084H155.792L152.676 39H150.7L161.91 13.92H163.62L172.132 34.212C173.095 36.568 174.412 37.8347 176.084 38.012V38.962C175.628 39.0887 175.02 39.152 174.26 39.152ZM165.178 30.374L160.998 20.456L156.59 30.374H165.178ZM181.627 15.63H178.929C177.51 15.63 176.421 15.9847 175.661 16.694C174.926 17.4033 174.559 18.5687 174.559 20.19H173.419V16.96C173.419 14.9333 174.495 13.92 176.649 13.92H194.509V15.63H186.567V39H181.627V15.63ZM201.09 39C200.178 39 199.481 38.8607 199 38.582C198.519 38.278 198.177 37.784 197.974 37.1C197.771 36.3907 197.67 35.3773 197.67 34.06V13.92H202.61V34.06C202.61 35.352 202.787 36.3147 203.142 36.948C203.497 37.556 204.206 37.86 205.27 37.86H205.65V39H201.09ZM216.583 39.646C215.164 39.646 213.796 39.456 212.479 39.076C211.162 38.7213 210.085 38.202 209.249 37.518C208.413 36.8087 207.995 35.998 207.995 35.086V30.64H209.059C209.439 33.224 210.237 35.086 211.453 36.226C212.669 37.366 214.366 37.936 216.545 37.936C218.014 37.936 219.18 37.6193 220.041 36.986C220.902 36.3527 221.333 35.4407 221.333 34.25C221.333 33.2367 221.016 32.3753 220.383 31.666C219.75 30.9567 218.762 30.184 217.419 29.348L212.745 26.536C211.048 25.548 209.832 24.522 209.097 23.458C208.388 22.394 208.033 21.1527 208.033 19.734C208.033 17.7327 208.793 16.1493 210.313 14.984C211.858 13.8187 213.936 13.236 216.545 13.236C217.964 13.236 219.332 13.426 220.649 13.806C221.966 14.1607 223.043 14.6927 223.879 15.402C224.715 16.086 225.133 16.884 225.133 17.796V22.242H224.069C223.638 19.658 222.84 17.796 221.675 16.656C220.51 15.516 218.939 14.946 216.963 14.946C215.595 14.946 214.506 15.2753 213.695 15.934C212.91 16.5927 212.517 17.492 212.517 18.632C212.517 19.62 212.821 20.4433 213.429 21.102C214.062 21.7353 215.076 22.4573 216.469 23.268L221.143 26.042C222.916 27.0807 224.183 28.094 224.943 29.082C225.728 30.0447 226.121 31.21 226.121 32.578C226.121 34.782 225.285 36.5173 223.613 37.784C221.966 39.0253 219.623 39.646 216.583 39.646Z" fill="white"/>
<path d="M71.4603 60.12C70.4203 60.12 69.4203 59.9533 68.4603 59.62C67.5136 59.2867 66.7803 58.8467 66.2603 58.3L66.8403 57.16C67.347 57.6667 68.0203 58.08 68.8603 58.4C69.7003 58.7067 70.567 58.86 71.4603 58.86C72.7136 58.86 73.6536 58.6333 74.2803 58.18C74.907 57.7133 75.2203 57.1133 75.2203 56.38C75.2203 55.82 75.047 55.3733 74.7003 55.04C74.367 54.7067 73.9536 54.4533 73.4603 54.28C72.967 54.0933 72.2803 53.8933 71.4003 53.68C70.347 53.4133 69.507 53.16 68.8803 52.92C68.2536 52.6667 67.7136 52.2867 67.2603 51.78C66.8203 51.2733 66.6003 50.5867 66.6003 49.72C66.6003 49.0133 66.787 48.3733 67.1603 47.8C67.5336 47.2133 68.107 46.7467 68.8803 46.4C69.6536 46.0533 70.6136 45.88 71.7603 45.88C72.5603 45.88 73.3403 45.9933 74.1003 46.22C74.8736 46.4333 75.5403 46.7333 76.1003 47.12L75.6003 48.3C75.0136 47.9133 74.387 47.6267 73.7203 47.44C73.0536 47.24 72.4003 47.14 71.7603 47.14C70.5336 47.14 69.607 47.38 68.9803 47.86C68.367 48.3267 68.0603 48.9333 68.0603 49.68C68.0603 50.24 68.227 50.6933 68.5603 51.04C68.907 51.3733 69.3336 51.6333 69.8403 51.82C70.3603 51.9933 71.0536 52.1867 71.9203 52.4C72.947 52.6533 73.7736 52.9067 74.4003 53.16C75.0403 53.4 75.5803 53.7733 76.0203 54.28C76.4603 54.7733 76.6803 55.4467 76.6803 56.3C76.6803 57.0067 76.487 57.6533 76.1003 58.24C75.727 58.8133 75.147 59.2733 74.3603 59.62C73.5736 59.9533 72.607 60.12 71.4603 60.12ZM89.085 49.48V60H87.725V58.08C87.3517 58.72 86.8383 59.22 86.185 59.58C85.5317 59.9267 84.785 60.1 83.945 60.1C82.5717 60.1 81.485 59.72 80.685 58.96C79.8983 58.1867 79.505 57.06 79.505 55.58V49.48H80.925V55.44C80.925 56.5467 81.1983 57.3867 81.745 57.96C82.2917 58.5333 83.0717 58.82 84.085 58.82C85.1917 58.82 86.065 58.4867 86.705 57.82C87.345 57.14 87.665 56.2 87.665 55V49.48H89.085ZM97.422 60.1C96.382 60.1 95.4487 59.8733 94.622 59.42C93.8087 58.9667 93.1687 58.3333 92.702 57.52C92.2354 56.6933 92.002 55.7667 92.002 54.74C92.002 53.7133 92.2354 52.7933 92.702 51.98C93.1687 51.1667 93.8087 50.5333 94.622 50.08C95.4487 49.6267 96.382 49.4 97.422 49.4C98.3287 49.4 99.1354 49.58 99.842 49.94C100.562 50.2867 101.129 50.8 101.542 51.48L100.482 52.2C100.135 51.68 99.6954 51.2933 99.162 51.04C98.6287 50.7733 98.0487 50.64 97.422 50.64C96.662 50.64 95.9754 50.8133 95.362 51.16C94.762 51.4933 94.2887 51.9733 93.942 52.6C93.6087 53.2267 93.442 53.94 93.442 54.74C93.442 55.5533 93.6087 56.2733 93.942 56.9C94.2887 57.5133 94.762 57.9933 95.362 58.34C95.9754 58.6733 96.662 58.84 97.422 58.84C98.0487 58.84 98.6287 58.7133 99.162 58.46C99.6954 58.2067 100.135 57.82 100.482 57.3L101.542 58.02C101.129 58.7 100.562 59.22 99.842 59.58C99.122 59.9267 98.3154 60.1 97.422 60.1ZM108.516 60.1C107.476 60.1 106.542 59.8733 105.716 59.42C104.902 58.9667 104.262 58.3333 103.796 57.52C103.329 56.6933 103.096 55.7667 103.096 54.74C103.096 53.7133 103.329 52.7933 103.796 51.98C104.262 51.1667 104.902 50.5333 105.716 50.08C106.542 49.6267 107.476 49.4 108.516 49.4C109.422 49.4 110.229 49.58 110.936 49.94C111.656 50.2867 112.222 50.8 112.636 51.48L111.576 52.2C111.229 51.68 110.789 51.2933 110.256 51.04C109.722 50.7733 109.142 50.64 108.516 50.64C107.756 50.64 107.069 50.8133 106.456 51.16C105.856 51.4933 105.382 51.9733 105.036 52.6C104.702 53.2267 104.536 53.94 104.536 54.74C104.536 55.5533 104.702 56.2733 105.036 56.9C105.382 57.5133 105.856 57.9933 106.456 58.34C107.069 58.6733 107.756 58.84 108.516 58.84C109.142 58.84 109.722 58.7133 110.256 58.46C110.789 58.2067 111.229 57.82 111.576 57.3L112.636 58.02C112.222 58.7 111.656 59.22 110.936 59.58C110.216 59.9267 109.409 60.1 108.516 60.1ZM124.905 49.48V60H123.545V58.08C123.172 58.72 122.659 59.22 122.005 59.58C121.352 59.9267 120.605 60.1 119.765 60.1C118.392 60.1 117.305 59.72 116.505 58.96C115.719 58.1867 115.325 57.06 115.325 55.58V49.48H116.745V55.44C116.745 56.5467 117.019 57.3867 117.565 57.96C118.112 58.5333 118.892 58.82 119.905 58.82C121.012 58.82 121.885 58.4867 122.525 57.82C123.165 57.14 123.485 56.2 123.485 55V49.48H124.905ZM128.882 45.16H130.302V60H128.882V45.16ZM143.413 55.18H134.613C134.693 56.2733 135.113 57.16 135.873 57.84C136.633 58.5067 137.593 58.84 138.753 58.84C139.407 58.84 140.007 58.7267 140.553 58.5C141.1 58.26 141.573 57.9133 141.973 57.46L142.773 58.38C142.307 58.94 141.72 59.3667 141.013 59.66C140.32 59.9533 139.553 60.1 138.713 60.1C137.633 60.1 136.673 59.8733 135.833 59.42C135.007 58.9533 134.36 58.3133 133.893 57.5C133.427 56.6867 133.193 55.7667 133.193 54.74C133.193 53.7133 133.413 52.7933 133.853 51.98C134.307 51.1667 134.92 50.5333 135.693 50.08C136.48 49.6267 137.36 49.4 138.333 49.4C139.307 49.4 140.18 49.6267 140.953 50.08C141.727 50.5333 142.333 51.1667 142.773 51.98C143.213 52.78 143.433 53.7 143.433 54.74L143.413 55.18ZM138.333 50.62C137.32 50.62 136.467 50.9467 135.773 51.6C135.093 52.24 134.707 53.08 134.613 54.12H142.073C141.98 53.08 141.587 52.24 140.893 51.6C140.213 50.9467 139.36 50.62 138.333 50.62ZM151.684 49.4C153.004 49.4 154.05 49.7867 154.824 50.56C155.61 51.32 156.004 52.4333 156.004 53.9V60H154.584V54.04C154.584 52.9467 154.31 52.1133 153.764 51.54C153.217 50.9667 152.437 50.68 151.424 50.68C150.29 50.68 149.39 51.02 148.724 51.7C148.07 52.3667 147.744 53.2933 147.744 54.48V60H146.324V49.48H147.684V51.42C148.07 50.78 148.604 50.2867 149.284 49.94C149.977 49.58 150.777 49.4 151.684 49.4ZM165.399 59.36C165.132 59.6 164.799 59.7867 164.399 59.92C164.012 60.04 163.606 60.1 163.179 60.1C162.192 60.1 161.432 59.8333 160.899 59.3C160.366 58.7667 160.099 58.0133 160.099 57.04V50.68H158.219V49.48H160.099V47.18H161.519V49.48H164.719V50.68H161.519V56.96C161.519 57.5867 161.672 58.0667 161.979 58.4C162.299 58.72 162.752 58.88 163.339 58.88C163.632 58.88 163.912 58.8333 164.179 58.74C164.459 58.6467 164.699 58.5133 164.899 58.34L165.399 59.36ZM177.378 60.12C176.338 60.12 175.338 59.9533 174.378 59.62C173.432 59.2867 172.698 58.8467 172.178 58.3L172.758 57.16C173.265 57.6667 173.938 58.08 174.778 58.4C175.618 58.7067 176.485 58.86 177.378 58.86C178.632 58.86 179.572 58.6333 180.198 58.18C180.825 57.7133 181.138 57.1133 181.138 56.38C181.138 55.82 180.965 55.3733 180.618 55.04C180.285 54.7067 179.872 54.4533 179.378 54.28C178.885 54.0933 178.198 53.8933 177.318 53.68C176.265 53.4133 175.425 53.16 174.798 52.92C174.172 52.6667 173.632 52.2867 173.178 51.78C172.738 51.2733 172.518 50.5867 172.518 49.72C172.518 49.0133 172.705 48.3733 173.078 47.8C173.452 47.2133 174.025 46.7467 174.798 46.4C175.572 46.0533 176.532 45.88 177.678 45.88C178.478 45.88 179.258 45.9933 180.018 46.22C180.792 46.4333 181.458 46.7333 182.018 47.12L181.518 48.3C180.932 47.9133 180.305 47.6267 179.638 47.44C178.972 47.24 178.318 47.14 177.678 47.14C176.452 47.14 175.525 47.38 174.898 47.86C174.285 48.3267 173.978 48.9333 173.978 49.68C173.978 50.24 174.145 50.6933 174.478 51.04C174.825 51.3733 175.252 51.6333 175.758 51.82C176.278 51.9933 176.972 52.1867 177.838 52.4C178.865 52.6533 179.692 52.9067 180.318 53.16C180.958 53.4 181.498 53.7733 181.938 54.28C182.378 54.7733 182.598 55.4467 182.598 56.3C182.598 57.0067 182.405 57.6533 182.018 58.24C181.645 58.8133 181.065 59.2733 180.278 59.62C179.492 59.9533 178.525 60.12 177.378 60.12ZM191.063 59.36C190.796 59.6 190.463 59.7867 190.063 59.92C189.676 60.04 189.27 60.1 188.843 60.1C187.856 60.1 187.096 59.8333 186.563 59.3C186.03 58.7667 185.763 58.0133 185.763 57.04V50.68H183.883V49.48H185.763V47.18H187.183V49.48H190.383V50.68H187.183V56.96C187.183 57.5867 187.336 58.0667 187.643 58.4C187.963 58.72 188.416 58.88 189.003 58.88C189.296 58.88 189.576 58.8333 189.843 58.74C190.123 58.6467 190.363 58.5133 190.563 58.34L191.063 59.36ZM197.577 60.1C196.564 60.1 195.65 59.8733 194.837 59.42C194.024 58.9533 193.384 58.3133 192.917 57.5C192.45 56.6867 192.217 55.7667 192.217 54.74C192.217 53.7133 192.45 52.7933 192.917 51.98C193.384 51.1667 194.024 50.5333 194.837 50.08C195.65 49.6267 196.564 49.4 197.577 49.4C198.59 49.4 199.504 49.6267 200.317 50.08C201.13 50.5333 201.764 51.1667 202.217 51.98C202.684 52.7933 202.917 53.7133 202.917 54.74C202.917 55.7667 202.684 56.6867 202.217 57.5C201.764 58.3133 201.13 58.9533 200.317 59.42C199.504 59.8733 198.59 60.1 197.577 60.1ZM197.577 58.84C198.324 58.84 198.99 58.6733 199.577 58.34C200.177 57.9933 200.644 57.5067 200.977 56.88C201.31 56.2533 201.477 55.54 201.477 54.74C201.477 53.94 201.31 53.2267 200.977 52.6C200.644 51.9733 200.177 51.4933 199.577 51.16C198.99 50.8133 198.324 50.64 197.577 50.64C196.83 50.64 196.157 50.8133 195.557 51.16C194.97 51.4933 194.504 51.9733 194.157 52.6C193.824 53.2267 193.657 53.94 193.657 54.74C193.657 55.54 193.824 56.2533 194.157 56.88C194.504 57.5067 194.97 57.9933 195.557 58.34C196.157 58.6733 196.83 58.84 197.577 58.84ZM207.176 51.54C207.509 50.8333 208.003 50.3 208.656 49.94C209.323 49.58 210.143 49.4 211.116 49.4V50.78L210.776 50.76C209.669 50.76 208.803 51.1 208.176 51.78C207.549 52.46 207.236 53.4133 207.236 54.64V60H205.816V49.48H207.176V51.54ZM222.749 55.18H213.949C214.029 56.2733 214.449 57.16 215.209 57.84C215.969 58.5067 216.929 58.84 218.089 58.84C218.743 58.84 219.343 58.7267 219.889 58.5C220.436 58.26 220.909 57.9133 221.309 57.46L222.109 58.38C221.643 58.94 221.056 59.3667 220.349 59.66C219.656 59.9533 218.889 60.1 218.049 60.1C216.969 60.1 216.009 59.8733 215.169 59.42C214.343 58.9533 213.696 58.3133 213.229 57.5C212.763 56.6867 212.529 55.7667 212.529 54.74C212.529 53.7133 212.749 52.7933 213.189 51.98C213.643 51.1667 214.256 50.5333 215.029 50.08C215.816 49.6267 216.696 49.4 217.669 49.4C218.643 49.4 219.516 49.6267 220.289 50.08C221.063 50.5333 221.669 51.1667 222.109 51.98C222.549 52.78 222.769 53.7 222.769 54.74L222.749 55.18ZM217.669 50.62C216.656 50.62 215.803 50.9467 215.109 51.6C214.429 52.24 214.043 53.08 213.949 54.12H221.409C221.316 53.08 220.923 52.24 220.229 51.6C219.549 50.9467 218.696 50.62 217.669 50.62Z" fill="#BCC1C2"/>
</svg>
