<svg width="51" height="47" viewBox="0 0 51 47" fill="none" xmlns="http://www.w3.org/2000/svg">
<path d="M19.254 24.1299C18.5443 18.4522 14.9957 11.3552 7.89868 7.09692C8.60839 14.194 13.5763 22.0007 19.254 24.1299Z" fill="#018087"/>
<path d="M22.7504 20.2662C26.0059 15.5607 28.0914 7.90496 25.6394 0C21.4377 5.7635 19.9373 14.8945 22.7504 20.2662Z" fill="#00666C"/>
<path d="M27.141 19.0103C32.6047 17.311 38.9651 12.5671 41.9058 4.83057C35.0449 6.7801 28.236 13.0463 27.141 19.0103Z" fill="#005E64"/>
<path d="M20.3931 26.8045C15.6466 23.6092 7.96486 21.6215 0.0917969 24.1741C5.90839 28.3019 15.0577 29.6859 20.3931 26.8045Z" fill="#00939B"/>
<path d="M24.2109 28.3883C18.5624 29.3014 11.5973 33.1025 7.59668 40.3479C14.6637 39.3838 22.287 34.1387 24.2109 28.3883Z" fill="#00ADB7"/>
<path d="M27.8722 26.9687C24.3133 31.449 21.7271 38.9504 23.6521 47C28.225 41.5263 30.3247 32.5143 27.8722 26.9687Z" fill="#00BBC6"/>
<path d="M29.8996 24.5415C30.8145 30.1897 34.6178 37.1535 41.8645 41.1519C40.8981 34.0852 35.6506 26.4635 29.8996 24.5415Z" fill="#A1D6D9"/>
<path d="M29.8993 21.4367C34.6893 24.5665 42.3976 26.4487 50.2349 23.7883C44.3622 19.7407 35.1947 18.4824 29.8993 21.4367Z" fill="#C4EDF0"/>
</svg>
