<svg width="159" height="45" viewBox="0 0 159 45" fill="none" xmlns="http://www.w3.org/2000/svg">
<path d="M14.1575 34.5122L16.6023 32.4146C16.4303 34.0269 16.5366 34.9419 17.3008 36.6098C19.3964 40.1057 20.7934 40.6883 21.1427 40.8049C23.9367 38.2878 25.1009 35.561 25.3337 34.5122C25.4747 33.6882 25.4985 33.115 25.3337 31.7154C25.0543 29.478 21.7247 26.122 20.0949 24.7236C14.7683 20.5285 13.3713 17.0325 13.0221 13.5366C12.6728 8.29268 16.5146 5.49593 21.1427 2C27.8484 7.03415 28.5935 10.8564 28.1278 12.1382L25.683 14.2358C26.2418 11.9984 24.286 9.34146 23.2382 8.29268L21.1427 6.19512L19.0471 8.29268C15.0325 12.132 15.1265 15.4655 22.1904 22.626C30.8342 29.2683 29.0479 34.797 28.3894 36.6098C26.9923 40.4553 23.4099 42.6607 21.1427 45C14.5083 40.0161 13.5513 35.7538 14.1575 34.5122Z" fill="#9AA8C3"/>
<path d="M10.4878 17.1575L12.5854 19.6023C10.9731 19.4303 10.0581 19.5366 8.39024 20.3008C4.89431 22.3964 4.31165 23.7934 4.19512 24.1427C6.7122 26.9367 9.43903 28.1009 10.4878 28.3337C11.3118 28.4747 11.885 28.4985 13.2846 28.3337C14.5543 28.1752 16.1843 27.0343 17.6123 25.7792L19.9268 27.9788C14.4003 33.4029 9.97515 31.9651 8.39024 31.3894C4.54472 29.9923 2.33933 26.4099 -3.55927e-07 24.1427C4.98392 17.5083 9.24619 16.5513 10.4878 17.1575Z" fill="#9AA8C3"/>
<path d="M38.8049 24.1427L36.7073 22.0471C33.5539 18.7497 30.7417 18.224 25.8699 22.0556L23.2477 19.8418C26.1867 17.1459 28.825 16.2856 31.4634 16.0221C36.7073 15.6728 39.5041 19.5146 43 24.1427C37.9659 30.8484 34.1436 31.5935 32.8618 31.1278L30.7642 28.683C33.0016 29.2418 35.6585 27.286 36.7073 26.2382L38.8049 24.1427Z" fill="#9AA8C3"/>
<path d="M50.5423 13.22C50.5423 12.336 50.4209 11.686 50.1783 11.27C49.9356 10.8367 49.4503 10.62 48.7223 10.62H48.4623V9.84H51.5823C52.2063 9.84 52.6829 9.944 53.0123 10.152C53.3416 10.36 53.5756 10.7067 53.7143 11.192C53.8529 11.66 53.9223 12.336 53.9223 13.22V17.51H60.9423V9.84H64.3223V23.62C64.3223 24.504 64.4436 25.1627 64.6863 25.596C64.9289 26.012 65.4143 26.22 66.1423 26.22H66.4023V27H63.2823C62.6583 27 62.1816 26.9047 61.8523 26.714C61.5229 26.506 61.2889 26.168 61.1503 25.7C61.0116 25.2147 60.9423 24.5213 60.9423 23.62V18.68H53.9223V27H50.5423V13.22ZM83.1132 27.104C82.0212 27.104 81.0332 26.8787 80.1492 26.428C79.2652 25.96 78.5458 25.0587 77.9912 23.724L77.3932 22.268H70.4772L68.3452 27H66.9932L74.6632 9.84H75.8332L81.6572 23.724C82.3158 25.336 83.2172 26.2027 84.3612 26.324V26.974C84.0492 27.0607 83.6332 27.104 83.1132 27.104ZM76.8992 21.098L74.0392 14.312L71.0232 21.098H76.8992ZM105.641 28.17C103.769 28.17 102.417 27.7367 101.585 26.87C100.77 25.986 100.363 24.556 100.363 22.58V13.376L94.6691 27H93.8111L86.8431 12.856V27H85.5431V9.84H88.7151L95.0071 22.606L100.337 9.84H103.743V22.58C103.743 24.2093 103.882 25.4053 104.159 26.168C104.436 26.9307 104.93 27.3813 105.641 27.52V28.17ZM122.494 27.104C121.402 27.104 120.414 26.8787 119.53 26.428C118.646 25.96 117.927 25.0587 117.372 23.724L116.774 22.268H109.858L107.726 27H106.374L114.044 9.84H115.214L121.038 23.724C121.697 25.336 122.598 26.2027 123.742 26.324V26.974C123.43 27.0607 123.014 27.104 122.494 27.104ZM116.28 21.098L113.42 14.312L110.404 21.098H116.28ZM127.534 11.01H125.688C124.717 11.01 123.972 11.2527 123.452 11.738C122.949 12.2233 122.698 13.0207 122.698 14.13H121.918V11.92C121.918 10.5333 122.655 9.84 124.128 9.84H136.348V11.01H130.914V27H127.534V11.01ZM140.851 27C140.227 27 139.75 26.9047 139.421 26.714C139.092 26.506 138.858 26.168 138.719 25.7C138.58 25.2147 138.511 24.5213 138.511 23.62V9.84H141.891V23.62C141.891 24.504 142.012 25.1627 142.255 25.596C142.498 26.012 142.983 26.22 143.711 26.22H143.971V27H140.851ZM151.452 27.442C150.481 27.442 149.545 27.312 148.644 27.052C147.742 26.8093 147.006 26.454 146.434 25.986C145.862 25.5007 145.576 24.946 145.576 24.322V21.28H146.304C146.564 23.048 147.11 24.322 147.942 25.102C148.774 25.882 149.935 26.272 151.426 26.272C152.431 26.272 153.228 26.0553 153.818 25.622C154.407 25.1887 154.702 24.5647 154.702 23.75C154.702 23.0567 154.485 22.4673 154.052 21.982C153.618 21.4967 152.942 20.968 152.024 20.396L148.826 18.472C147.664 17.796 146.832 17.094 146.33 16.366C145.844 15.638 145.602 14.7887 145.602 13.818C145.602 12.4487 146.122 11.3653 147.162 10.568C148.219 9.77067 149.64 9.372 151.426 9.372C152.396 9.372 153.332 9.502 154.234 9.762C155.135 10.0047 155.872 10.3687 156.444 10.854C157.016 11.322 157.302 11.868 157.302 12.492V15.534H156.574C156.279 13.766 155.733 12.492 154.936 11.712C154.138 10.932 153.064 10.542 151.712 10.542C150.776 10.542 150.03 10.7673 149.476 11.218C148.938 11.6687 148.67 12.284 148.67 13.064C148.67 13.74 148.878 14.3033 149.294 14.754C149.727 15.1873 150.42 15.6813 151.374 16.236L154.572 18.134C155.785 18.8447 156.652 19.538 157.172 20.214C157.709 20.8727 157.978 21.67 157.978 22.606C157.978 24.114 157.406 25.3013 156.262 26.168C155.135 27.0173 153.532 27.442 151.452 27.442Z" fill="#00666C"/>
<path d="M59.1762 41.072C58.5522 41.072 57.9522 40.972 57.3762 40.772C56.8082 40.572 56.3682 40.308 56.0562 39.98L56.4042 39.296C56.7082 39.6 57.1122 39.848 57.6162 40.04C58.1202 40.224 58.6402 40.316 59.1762 40.316C59.9282 40.316 60.4922 40.18 60.8682 39.908C61.2442 39.628 61.4322 39.268 61.4322 38.828C61.4322 38.492 61.3282 38.224 61.1202 38.024C60.9202 37.824 60.6722 37.672 60.3762 37.568C60.0802 37.456 59.6682 37.336 59.1402 37.208C58.5082 37.048 58.0042 36.896 57.6282 36.752C57.2522 36.6 56.9282 36.372 56.6562 36.068C56.3922 35.764 56.2602 35.352 56.2602 34.832C56.2602 34.408 56.3722 34.024 56.5962 33.68C56.8202 33.328 57.1642 33.048 57.6282 32.84C58.0922 32.632 58.6682 32.528 59.3562 32.528C59.8362 32.528 60.3042 32.596 60.7602 32.732C61.2242 32.86 61.6242 33.04 61.9602 33.272L61.6602 33.98C61.3082 33.748 60.9322 33.576 60.5322 33.464C60.1322 33.344 59.7402 33.284 59.3562 33.284C58.6202 33.284 58.0642 33.428 57.6882 33.716C57.3202 33.996 57.1362 34.36 57.1362 34.808C57.1362 35.144 57.2362 35.416 57.4362 35.624C57.6442 35.824 57.9002 35.98 58.2042 36.092C58.5162 36.196 58.9322 36.312 59.4522 36.44C60.0682 36.592 60.5642 36.744 60.9402 36.896C61.3242 37.04 61.6482 37.264 61.9122 37.568C62.1762 37.864 62.3082 38.268 62.3082 38.78C62.3082 39.204 62.1922 39.592 61.9602 39.944C61.7362 40.288 61.3882 40.564 60.9162 40.772C60.4442 40.972 59.8642 41.072 59.1762 41.072ZM69.751 34.688V41H68.935V39.848C68.711 40.232 68.403 40.532 68.011 40.748C67.619 40.956 67.171 41.06 66.667 41.06C65.843 41.06 65.191 40.832 64.711 40.376C64.239 39.912 64.003 39.236 64.003 38.348V34.688H64.855V38.264C64.855 38.928 65.019 39.432 65.347 39.776C65.675 40.12 66.143 40.292 66.751 40.292C67.415 40.292 67.939 40.092 68.323 39.692C68.707 39.284 68.899 38.72 68.899 38V34.688H69.751ZM74.7532 41.06C74.1292 41.06 73.5692 40.924 73.0732 40.652C72.5852 40.38 72.2012 40 71.9212 39.512C71.6412 39.016 71.5012 38.46 71.5012 37.844C71.5012 37.228 71.6412 36.676 71.9212 36.188C72.2012 35.7 72.5852 35.32 73.0732 35.048C73.5692 34.776 74.1292 34.64 74.7532 34.64C75.2972 34.64 75.7812 34.748 76.2052 34.964C76.6372 35.172 76.9772 35.48 77.2252 35.888L76.5892 36.32C76.3812 36.008 76.1172 35.776 75.7972 35.624C75.4772 35.464 75.1292 35.384 74.7532 35.384C74.2972 35.384 73.8852 35.488 73.5172 35.696C73.1572 35.896 72.8732 36.184 72.6652 36.56C72.4652 36.936 72.3652 37.364 72.3652 37.844C72.3652 38.332 72.4652 38.764 72.6652 39.14C72.8732 39.508 73.1572 39.796 73.5172 40.004C73.8852 40.204 74.2972 40.304 74.7532 40.304C75.1292 40.304 75.4772 40.228 75.7972 40.076C76.1172 39.924 76.3812 39.692 76.5892 39.38L77.2252 39.812C76.9772 40.22 76.6372 40.532 76.2052 40.748C75.7732 40.956 75.2892 41.06 74.7532 41.06ZM81.4095 41.06C80.7855 41.06 80.2255 40.924 79.7295 40.652C79.2415 40.38 78.8575 40 78.5775 39.512C78.2975 39.016 78.1575 38.46 78.1575 37.844C78.1575 37.228 78.2975 36.676 78.5775 36.188C78.8575 35.7 79.2415 35.32 79.7295 35.048C80.2255 34.776 80.7855 34.64 81.4095 34.64C81.9535 34.64 82.4375 34.748 82.8615 34.964C83.2935 35.172 83.6335 35.48 83.8815 35.888L83.2455 36.32C83.0375 36.008 82.7735 35.776 82.4535 35.624C82.1335 35.464 81.7855 35.384 81.4095 35.384C80.9535 35.384 80.5415 35.488 80.1735 35.696C79.8135 35.896 79.5295 36.184 79.3215 36.56C79.1215 36.936 79.0215 37.364 79.0215 37.844C79.0215 38.332 79.1215 38.764 79.3215 39.14C79.5295 39.508 79.8135 39.796 80.1735 40.004C80.5415 40.204 80.9535 40.304 81.4095 40.304C81.7855 40.304 82.1335 40.228 82.4535 40.076C82.7735 39.924 83.0375 39.692 83.2455 39.38L83.8815 39.812C83.6335 40.22 83.2935 40.532 82.8615 40.748C82.4295 40.956 81.9455 41.06 81.4095 41.06ZM91.2432 34.688V41H90.4272V39.848C90.2032 40.232 89.8952 40.532 89.5032 40.748C89.1112 40.956 88.6632 41.06 88.1592 41.06C87.3352 41.06 86.6832 40.832 86.2032 40.376C85.7312 39.912 85.4952 39.236 85.4952 38.348V34.688H86.3472V38.264C86.3472 38.928 86.5112 39.432 86.8392 39.776C87.1672 40.12 87.6352 40.292 88.2432 40.292C88.9072 40.292 89.4312 40.092 89.8152 39.692C90.1992 39.284 90.3912 38.72 90.3912 38V34.688H91.2432ZM93.6294 32.096H94.4814V41H93.6294V32.096ZM102.348 38.108H97.0681C97.1161 38.764 97.3681 39.296 97.8241 39.704C98.2801 40.104 98.8561 40.304 99.5521 40.304C99.9441 40.304 100.304 40.236 100.632 40.1C100.96 39.956 101.244 39.748 101.484 39.476L101.964 40.028C101.684 40.364 101.332 40.62 100.908 40.796C100.492 40.972 100.032 41.06 99.5281 41.06C98.8801 41.06 98.3041 40.924 97.8001 40.652C97.3041 40.372 96.9161 39.988 96.6361 39.5C96.3561 39.012 96.2161 38.46 96.2161 37.844C96.2161 37.228 96.3481 36.676 96.6121 36.188C96.8841 35.7 97.2521 35.32 97.7161 35.048C98.1881 34.776 98.7161 34.64 99.3001 34.64C99.8841 34.64 100.408 34.776 100.872 35.048C101.336 35.32 101.7 35.7 101.964 36.188C102.228 36.668 102.36 37.22 102.36 37.844L102.348 38.108ZM99.3001 35.372C98.6921 35.372 98.1801 35.568 97.7641 35.96C97.3561 36.344 97.1241 36.848 97.0681 37.472H101.544C101.488 36.848 101.252 36.344 100.836 35.96C100.428 35.568 99.9161 35.372 99.3001 35.372ZM107.31 34.64C108.102 34.64 108.73 34.872 109.194 35.336C109.666 35.792 109.902 36.46 109.902 37.34V41H109.05V37.424C109.05 36.768 108.886 36.268 108.558 35.924C108.23 35.58 107.762 35.408 107.154 35.408C106.474 35.408 105.934 35.612 105.534 36.02C105.142 36.42 104.946 36.976 104.946 37.688V41H104.094V34.688H104.91V35.852C105.142 35.468 105.462 35.172 105.87 34.964C106.286 34.748 106.766 34.64 107.31 34.64ZM115.539 40.616C115.379 40.76 115.179 40.872 114.939 40.952C114.707 41.024 114.463 41.06 114.207 41.06C113.615 41.06 113.159 40.9 112.839 40.58C112.519 40.26 112.359 39.808 112.359 39.224V35.408H111.231V34.688H112.359V33.308H113.211V34.688H115.131V35.408H113.211V39.176C113.211 39.552 113.303 39.84 113.487 40.04C113.679 40.232 113.951 40.328 114.303 40.328C114.479 40.328 114.647 40.3 114.807 40.244C114.975 40.188 115.119 40.108 115.239 40.004L115.539 40.616ZM122.727 41.072C122.103 41.072 121.503 40.972 120.927 40.772C120.359 40.572 119.919 40.308 119.607 39.98L119.955 39.296C120.259 39.6 120.663 39.848 121.167 40.04C121.671 40.224 122.191 40.316 122.727 40.316C123.479 40.316 124.043 40.18 124.419 39.908C124.795 39.628 124.983 39.268 124.983 38.828C124.983 38.492 124.879 38.224 124.671 38.024C124.471 37.824 124.223 37.672 123.927 37.568C123.631 37.456 123.219 37.336 122.691 37.208C122.059 37.048 121.555 36.896 121.179 36.752C120.803 36.6 120.479 36.372 120.207 36.068C119.943 35.764 119.811 35.352 119.811 34.832C119.811 34.408 119.923 34.024 120.147 33.68C120.371 33.328 120.715 33.048 121.179 32.84C121.643 32.632 122.219 32.528 122.907 32.528C123.387 32.528 123.855 32.596 124.311 32.732C124.775 32.86 125.175 33.04 125.511 33.272L125.211 33.98C124.859 33.748 124.483 33.576 124.083 33.464C123.683 33.344 123.291 33.284 122.907 33.284C122.171 33.284 121.615 33.428 121.239 33.716C120.871 33.996 120.687 34.36 120.687 34.808C120.687 35.144 120.787 35.416 120.987 35.624C121.195 35.824 121.451 35.98 121.755 36.092C122.067 36.196 122.483 36.312 123.003 36.44C123.619 36.592 124.115 36.744 124.491 36.896C124.875 37.04 125.199 37.264 125.463 37.568C125.727 37.864 125.859 38.268 125.859 38.78C125.859 39.204 125.743 39.592 125.511 39.944C125.287 40.288 124.939 40.564 124.467 40.772C123.995 40.972 123.415 41.072 122.727 41.072ZM130.938 40.616C130.778 40.76 130.578 40.872 130.338 40.952C130.106 41.024 129.862 41.06 129.606 41.06C129.014 41.06 128.558 40.9 128.238 40.58C127.918 40.26 127.758 39.808 127.758 39.224V35.408H126.63V34.688H127.758V33.308H128.61V34.688H130.53V35.408H128.61V39.176C128.61 39.552 128.702 39.84 128.886 40.04C129.078 40.232 129.35 40.328 129.702 40.328C129.878 40.328 130.046 40.3 130.206 40.244C130.374 40.188 130.518 40.108 130.638 40.004L130.938 40.616ZM134.846 41.06C134.238 41.06 133.69 40.924 133.202 40.652C132.714 40.372 132.33 39.988 132.05 39.5C131.77 39.012 131.63 38.46 131.63 37.844C131.63 37.228 131.77 36.676 132.05 36.188C132.33 35.7 132.714 35.32 133.202 35.048C133.69 34.776 134.238 34.64 134.846 34.64C135.454 34.64 136.002 34.776 136.49 35.048C136.978 35.32 137.358 35.7 137.63 36.188C137.91 36.676 138.05 37.228 138.05 37.844C138.05 38.46 137.91 39.012 137.63 39.5C137.358 39.988 136.978 40.372 136.49 40.652C136.002 40.924 135.454 41.06 134.846 41.06ZM134.846 40.304C135.294 40.304 135.694 40.204 136.046 40.004C136.406 39.796 136.686 39.504 136.886 39.128C137.086 38.752 137.186 38.324 137.186 37.844C137.186 37.364 137.086 36.936 136.886 36.56C136.686 36.184 136.406 35.896 136.046 35.696C135.694 35.488 135.294 35.384 134.846 35.384C134.398 35.384 133.994 35.488 133.634 35.696C133.282 35.896 133.002 36.184 132.794 36.56C132.594 36.936 132.494 37.364 132.494 37.844C132.494 38.324 132.594 38.752 132.794 39.128C133.002 39.504 133.282 39.796 133.634 40.004C133.994 40.204 134.398 40.304 134.846 40.304ZM140.606 35.924C140.806 35.5 141.102 35.18 141.494 34.964C141.894 34.748 142.386 34.64 142.97 34.64V35.468L142.766 35.456C142.102 35.456 141.582 35.66 141.206 36.068C140.83 36.476 140.642 37.048 140.642 37.784V41H139.79V34.688H140.606V35.924ZM149.95 38.108H144.67C144.718 38.764 144.97 39.296 145.426 39.704C145.882 40.104 146.458 40.304 147.154 40.304C147.546 40.304 147.906 40.236 148.234 40.1C148.562 39.956 148.846 39.748 149.086 39.476L149.566 40.028C149.286 40.364 148.934 40.62 148.51 40.796C148.094 40.972 147.634 41.06 147.13 41.06C146.482 41.06 145.906 40.924 145.402 40.652C144.906 40.372 144.518 39.988 144.238 39.5C143.958 39.012 143.818 38.46 143.818 37.844C143.818 37.228 143.95 36.676 144.214 36.188C144.486 35.7 144.854 35.32 145.318 35.048C145.79 34.776 146.318 34.64 146.902 34.64C147.486 34.64 148.01 34.776 148.474 35.048C148.938 35.32 149.302 35.7 149.566 36.188C149.83 36.668 149.962 37.22 149.962 37.844L149.95 38.108ZM146.902 35.372C146.294 35.372 145.782 35.568 145.366 35.96C144.958 36.344 144.726 36.848 144.67 37.472H149.146C149.09 36.848 148.854 36.344 148.438 35.96C148.03 35.568 147.518 35.372 146.902 35.372Z" fill="#047B93"/>
</svg>
