<svg width="24" height="25" viewBox="0 0 24 25" fill="none" xmlns="http://www.w3.org/2000/svg">
<path d="M12 6.67871C8.71875 6.67871 6 9.35059 6 12.6787C6 16.0068 8.67188 18.6787 12 18.6787C15.3281 18.6787 18 15.96 18 12.6787C18 9.39746 15.2812 6.67871 12 6.67871ZM12 16.5225C9.89062 16.5225 8.15625 14.7881 8.15625 12.6787C8.15625 10.5693 9.89062 8.83496 12 8.83496C14.1094 8.83496 15.8438 10.5693 15.8438 12.6787C15.8438 14.7881 14.1094 16.5225 12 16.5225Z" fill="white" fill-opacity="0.7"/>
<path d="M18.5 7.67871C19.3284 7.67871 20 7.00714 20 6.17871C20 5.35028 19.3284 4.67871 18.5 4.67871C17.6716 4.67871 17 5.35028 17 6.17871C17 7.00714 17.6716 7.67871 18.5 7.67871Z" fill="white" fill-opacity="0.7"/>
<path d="M22.0645 2.66258C20.8065 1.35613 19.0161 0.678711 16.9839 0.678711H7.01613C2.80645 0.678711 0 3.48516 0 7.69484V17.6142C0 19.6948 0.677419 21.4852 2.03226 22.7916C3.33871 24.0497 5.08065 24.6787 7.06452 24.6787H16.9355C19.0161 24.6787 20.7581 24.0013 22.0161 22.7916C23.3226 21.5336 24 19.7432 24 17.6626V7.69484C24 5.66258 23.3226 3.92065 22.0645 2.66258ZM21.871 17.6626C21.871 19.1626 21.3387 20.3723 20.4677 21.1948C19.5968 22.0174 18.3871 22.4529 16.9355 22.4529H7.06452C5.6129 22.4529 4.40323 22.0174 3.53226 21.1948C2.66129 20.3239 2.22581 19.1142 2.22581 17.6142V7.69484C2.22581 6.24323 2.66129 5.03355 3.53226 4.16258C4.35484 3.34 5.6129 2.90452 7.06452 2.90452H17.0323C18.4839 2.90452 19.6935 3.34 20.5645 4.21097C21.3871 5.08194 21.871 6.29161 21.871 7.69484V17.6626Z" fill="white" fill-opacity="0.7"/>
</svg>
