<svg width="19" height="24" viewBox="0 0 19 24" fill="none" xmlns="http://www.w3.org/2000/svg">
<path d="M10.0731 0C3.37628 0 0 4.69571 0 8.61055C0 10.982 0.917974 13.0901 2.88488 13.8775C2.96786 13.9103 3.04954 13.9273 3.12604 13.9273C3.34646 13.9273 3.52409 13.791 3.59151 13.5316C3.65764 13.2905 3.81063 12.6813 3.88065 12.4245C3.974 12.0786 3.93899 11.9594 3.67838 11.658C3.11048 11.0029 2.74614 10.1553 2.74614 8.95644C2.74614 5.47134 5.41449 2.35441 9.688 2.35441C13.4727 2.35441 15.5524 4.61579 15.5524 7.63577C15.5524 11.6096 13.7541 14.965 11.0844 14.965C9.60762 14.965 8.50553 13.7714 8.85949 12.3092C9.28347 10.5627 10.1055 8.67868 10.1055 7.41959C10.1055 6.29021 9.48444 5.3508 8.20343 5.3508C6.69421 5.3508 5.48321 6.87455 5.48321 8.91844C5.48321 10.2181 5.93312 11.0999 5.93312 11.0999C5.93312 11.0999 4.39279 17.491 4.12181 18.6112C3.58243 20.8398 4.04013 23.5729 4.07902 23.848C4.09199 23.9463 4.17497 24 4.26054 24C4.31759 24 4.37594 23.9764 4.41354 23.9266C4.55357 23.7511 6.34803 21.5827 6.95871 19.4157C7.13375 18.8025 7.95059 15.6279 7.95059 15.6279C8.4407 16.5411 9.87212 17.3442 11.3956 17.3442C15.9258 17.3442 19 13.3076 19 7.90042C18.9987 3.80871 15.4578 0 10.0731 0Z" fill="#BDC9CC"/>
</svg>
